<?xml version="1.0" standalone="no"?>
<!DOCTYPE svg PUBLIC "-//W3C//DTD SVG 20010904//EN"
 "http://www.w3.org/TR/2001/REC-SVG-20010904/DTD/svg10.dtd">
<svg version="1.0" xmlns="http://www.w3.org/2000/svg"
 width="700.000000pt" height="700.000000pt" viewBox="0 0 700.000000 700.000000"
 preserveAspectRatio="xMidYMid meet">
<metadata>
Created by potrace 1.14, written by Peter Selinger 2001-2017
</metadata>
<g transform="translate(0.000000,700.000000) scale(0.100000,-0.100000)"
fill="#000000" stroke="none">
<path d="M3285 6994 c-716 -56 -1341 -287 -1890 -699 -279 -210 -559 -500
-762 -790 -733 -1046 -835 -2422 -264 -3565 176 -352 372 -622 660 -911 252
-251 473 -420 764 -582 858 -480 1860 -576 2802 -270 606 197 1160 572 1580
1068 450 532 722 1170 807 1890 7 62 13 220 13 365 0 145 -6 303 -13 365 -99
844 -448 1560 -1043 2140 -172 168 -315 284 -504 410 -453 301 -946 484 -1493
556 -150 19 -531 33 -657 23z m-617 -1704 c197 -22 381 -84 505 -173 104 -74
157 -154 178 -269 24 -132 -18 -274 -111 -372 -68 -72 -131 -100 -230 -100
-94 0 -155 17 -193 55 -29 29 -29 30 -20 102 15 132 9 200 -23 264 -38 76 -89
114 -195 144 -205 57 -439 6 -550 -119 -68 -78 -129 -230 -129 -322 0 -20 7
-61 16 -91 52 -178 225 -309 658 -496 434 -188 583 -282 725 -458 162 -201
220 -413 193 -704 -32 -340 -154 -584 -377 -755 -187 -144 -352 -221 -568
-267 -123 -27 -411 -32 -542 -10 -209 34 -404 109 -540 206 -141 100 -245 253
-280 411 -27 117 -17 322 19 429 48 142 109 222 225 299 166 109 344 121 504
33 86 -47 120 -92 125 -167 4 -58 3 -61 -31 -92 -19 -18 -55 -52 -80 -75 -167
-157 -146 -450 42 -584 191 -137 495 -113 675 52 125 114 180 242 180 419 0
177 -53 301 -181 422 -115 108 -282 202 -640 358 -241 105 -391 201 -520 332
-157 159 -210 311 -200 572 6 160 32 269 93 391 113 223 340 411 604 499 196
65 445 89 668 66z m2292 -30 c575 -61 930 -408 1055 -1034 41 -208 50 -315 49
-606 0 -286 -12 -421 -55 -635 -76 -379 -229 -728 -406 -925 -96 -107 -275
-220 -423 -268 -95 -31 -171 -42 -279 -42 -116 0 -206 18 -329 66 -112 43
-187 97 -234 168 -4 5 -27 -13 -53 -42 -103 -115 -258 -183 -422 -186 -113 -1
-132 10 -115 71 55 195 73 308 92 573 30 425 42 1659 20 2020 -16 254 -54 451
-111 569 -25 51 -29 68 -21 86 13 29 78 58 209 95 177 50 303 69 608 93 95 8
327 6 415 -3z"/>
<path d="M4630 4931 c-49 -15 -91 -42 -99 -65 -12 -29 -28 -143 -42 -281 -6
-61 -14 -553 -19 -1100 l-8 -990 27 -35 c39 -50 135 -97 213 -105 196 -20 397
86 506 268 160 265 244 697 229 1162 -9 268 -32 423 -89 610 -92 305 -237 473
-455 530 -60 16 -219 19 -263 6z"/>
</g>
</svg>
